<svg xmlns="http://www.w3.org/2000/svg" viewBox="0 0 96 96">
  <g transform="translate(13.55 2)">
    <rect fill="#f7dd98" x=".32" y="0" width="22.97" height="22.97" rx="8.94" ry="8.94"/>
    <path fill="#00213c" d="M68.9,22.97c-3.96.22-7.64.94-11.14,2.88-2.97,1.65-5.57,3.97-7.55,6.74-2.78,3.88-4.28,8.58-4.28,13.35,0,8.37-2.24,16.21-6.15,22.97-1.53,2.65-3.32,5.13-5.34,7.41-5.12,5.81-11.68,10.31-19.13,12.94-4.79,1.69-9.95,2.62-15.32,2.62v-22.97c.68-.04,1.37-.08,2.05-.13,2.88-.2,5.7-1.02,8.28-2.32,2.28-1.15,4.36-2.68,6.14-4.52,1.78-1.83,3.25-3.96,4.34-6.28,1.11-2.38,1.81-4.95,2.05-7.56.07-.72.1-1.44.1-2.16,0-8.37,2.24-16.21,6.15-22.97,1.53-2.65,3.32-5.13,5.34-7.41,5.12-5.81,11.68-10.31,19.13-12.94C58.37.92,63.53,0,68.9,0v22.97Z"/>
  </g>
</svg>
