<svg xmlns="http://www.w3.org/2000/svg" viewBox="0 0 96 96">
  <rect width="96" height="96" rx="24" fill="#f8f9fa"/>
  <rect x="14" y="10" width="18" height="18" rx="7" fill="#f7dd98"/>
  <path fill="#00213c" d="M74 28c-6.3.4-12 1.5-17.4 4.5A33 33 0 0 0 45 42.8a31.8 31.8 0 0 0-6.7 19c0 8.2-2.2 15.9-6 22.5a42.8 42.8 0 0 1-22.2 19.9A44 44 0 0 1 0 107V84.5c.7 0 1.3-.1 2-.1 2.8-.2 5.5-1 8-2.3a23.5 23.5 0 0 0 10.2-10.6c1.1-2.3 1.8-4.8 2-7.4.1-.7.1-1.4.1-2.1 0-8.2 2.2-15.9 6-22.5a43.2 43.2 0 0 1 22.2-19.9C55.2 18 60.2 17.1 65.5 17v22.5Z" transform="translate(12 -6) scale(.88)"/>
</svg>
